<svg xmlns="http://www.w3.org/2000/svg" xmlns:xlink="http://www.w3.org/1999/xlink" width="500" zoomAndPan="magnify" viewBox="0 0 375 374.999991" height="500" preserveAspectRatio="xMidYMid meet" version="1.0"><defs><g/><clipPath id="9a6c88c6ab"><path d="M 108 1.527344 L 360.882812 1.527344 L 360.882812 213 L 108 213 Z M 108 1.527344 " clip-rule="nonzero"/></clipPath><clipPath id="99731c9643"><path d="M 165 1.527344 L 360.882812 1.527344 L 360.882812 258.027344 L 165 258.027344 Z M 165 1.527344 " clip-rule="nonzero"/></clipPath><clipPath id="2ee3d3e6b5"><path d="M 27 1.527344 L 360.882812 1.527344 L 360.882812 116 L 27 116 Z M 27 1.527344 " clip-rule="nonzero"/></clipPath></defs><g fill="#545454" fill-opacity="1"><g transform="translate(2.598585, 335.272429)"><g><path d="M 25.636719 1.152344 C 36.75 1.152344 45.621094 -5.589844 47.019531 -14.882812 L 39.851562 -15.792969 C 38.574219 -9.839844 32.683594 -5.222656 25.878906 -5.222656 C 16.707031 -5.222656 10.328125 -11.90625 10.328125 -21.503906 C 10.328125 -31.164062 16.644531 -37.785156 25.878906 -37.785156 C 32.621094 -37.785156 38.511719 -33.105469 39.789062 -26.972656 L 46.957031 -27.820312 C 45.4375 -37.296875 36.570312 -44.222656 25.636719 -44.222656 C 12.269531 -44.222656 2.671875 -34.867188 2.671875 -21.503906 C 2.671875 -8.199219 12.269531 1.152344 25.636719 1.152344 Z M 25.636719 1.152344 "/></g></g></g><g fill="#545454" fill-opacity="1"><g transform="translate(52.271873, 335.272429)"><g><path d="M 4.375 0 L 33.410156 0 L 33.410156 -6.621094 L 12.027344 -6.621094 L 12.027344 -43.007812 L 4.375 -43.007812 Z M 4.375 0 "/></g></g></g><g fill="#545454" fill-opacity="1"><g transform="translate(87.310358, 335.272429)"><g><path d="M 4.375 0 L 12.027344 0 L 12.027344 -43.007812 L 4.375 -43.007812 Z M 4.375 0 "/></g></g></g><g fill="#545454" fill-opacity="1"><g transform="translate(103.706188, 335.272429)"><g><path d="M 4.375 0 L 12.027344 0 L 12.027344 -14.640625 L 22.171875 -14.640625 C 32.804688 -14.640625 38.878906 -20.410156 38.878906 -28.855469 C 38.9375 -37.238281 32.863281 -43.007812 22.234375 -43.007812 L 4.375 -43.007812 Z M 12.027344 -20.351562 L 12.027344 -37.296875 L 21.445312 -37.296875 C 27.820312 -37.296875 31.222656 -33.773438 31.222656 -28.855469 C 31.222656 -23.8125 27.820312 -20.351562 21.445312 -20.351562 Z M 12.027344 -20.351562 "/></g></g></g><g fill="#545454" fill-opacity="1"><g transform="translate(144.695763, 335.272429)"><g><path d="M 4.3125 0 L 24.785156 0 C 34.019531 0 40.03125 -4.496094 40.03125 -11.601562 C 40.03125 -16.886719 36.570312 -20.777344 31.710938 -21.929688 L 31.710938 -22.414062 C 35.902344 -23.628906 38.816406 -27.03125 38.816406 -31.710938 C 38.816406 -38.453125 33.230469 -43.007812 24.480469 -43.007812 L 4.3125 -43.007812 Z M 11.96875 -24.664062 L 11.96875 -37.296875 L 23.144531 -37.296875 C 27.699219 -37.296875 30.980469 -34.6875 30.980469 -30.980469 C 30.980469 -27.273438 27.699219 -24.664062 23.144531 -24.664062 Z M 11.96875 -5.710938 L 11.96875 -19.621094 L 23.328125 -19.621094 C 28.429688 -19.621094 32.195312 -16.765625 32.195312 -12.695312 C 32.195312 -8.625 28.429688 -5.710938 23.328125 -5.710938 Z M 11.96875 -5.710938 "/></g></g></g><g fill="#545454" fill-opacity="1"><g transform="translate(187.507086, 335.272429)"><g><path d="M 26.121094 1.152344 C 39.972656 1.152344 49.628906 -7.957031 49.628906 -21.503906 C 49.628906 -35.050781 39.972656 -44.222656 26.121094 -44.222656 C 12.269531 -44.222656 2.613281 -35.050781 2.613281 -21.503906 C 2.613281 -7.957031 12.269531 1.152344 26.121094 1.152344 Z M 26.121094 -5.222656 C 16.886719 -5.222656 10.328125 -11.96875 10.328125 -21.503906 C 10.328125 -31.101562 16.886719 -37.785156 26.121094 -37.785156 C 35.414062 -37.785156 41.976562 -31.101562 41.976562 -21.503906 C 41.976562 -11.90625 35.414062 -5.222656 26.121094 -5.222656 Z M 26.121094 -5.222656 "/></g></g></g><g fill="#545454" fill-opacity="1"><g transform="translate(239.791557, 335.272429)"><g><path d="M 0.910156 0 L 8.808594 0 L 12.027344 -8.929688 L 31.164062 -8.929688 L 34.382812 0 L 42.339844 0 L 27.273438 -43.007812 L 15.976562 -43.007812 Z M 13.667969 -14.640625 L 21.320312 -36.386719 L 21.867188 -36.386719 L 29.523438 -14.640625 Z M 13.667969 -14.640625 "/></g></g></g><g fill="#545454" fill-opacity="1"><g transform="translate(282.967239, 335.272429)"><g><path d="M 4.375 0 L 12.027344 0 L 12.027344 -16.460938 L 19.074219 -16.460938 L 32.378906 0 L 41.066406 0 L 26.605469 -17.007812 L 27.945312 -17.070312 C 35.476562 -17.675781 40.578125 -22.535156 40.578125 -29.582031 C 40.578125 -37.785156 34.199219 -43.007812 24.296875 -43.007812 L 4.375 -43.007812 Z M 12.027344 -21.6875 L 12.027344 -37.296875 L 23.082031 -37.296875 C 28.976562 -37.296875 32.863281 -34.445312 32.863281 -29.523438 C 32.863281 -24.722656 28.914062 -21.6875 23.082031 -21.6875 Z M 12.027344 -21.6875 "/></g></g></g><g fill="#545454" fill-opacity="1"><g transform="translate(326.264384, 335.272429)"><g><path d="M 4.375 0 L 19.804688 0 C 34.019531 0 43.496094 -8.199219 43.496094 -21.503906 C 43.496094 -34.808594 33.957031 -43.007812 19.804688 -43.007812 L 4.375 -43.007812 Z M 11.785156 -5.953125 L 11.785156 -37.117188 L 19.804688 -37.117188 C 29.28125 -37.117188 35.839844 -31.222656 35.839844 -21.503906 C 35.839844 -11.785156 29.402344 -5.953125 19.804688 -5.953125 Z M 11.785156 -5.953125 "/></g></g></g><g fill="#737373" fill-opacity="1"><g transform="translate(118.377013, 364.955229)"><g><path d="M 2.324219 -17.890625 L 2.324219 -1.117188 C 2.324219 -0.390625 2.867188 0 3.410156 0 C 3.953125 0 4.496094 -0.390625 4.496094 -1.144531 L 4.496094 -7.84375 L 15.507812 -7.84375 C 16.710938 -7.84375 16.710938 -9.714844 15.507812 -9.714844 L 4.496094 -9.714844 L 4.496094 -17.285156 L 16.078125 -17.285156 C 17.347656 -17.285156 17.347656 -19.1875 16.078125 -19.1875 L 3.648438 -19.1875 C 2.925781 -19.1875 2.324219 -18.582031 2.324219 -17.890625 Z M 2.324219 -17.890625 "/></g></g></g><g fill="#737373" fill-opacity="1"><g transform="translate(151.823292, 364.955229)"><g><path d="M 3.4375 0 L 15.808594 0 C 17.347656 0 17.347656 -1.992188 15.808594 -1.992188 L 4.523438 -1.992188 L 4.523438 -18.128906 C 4.523438 -18.855469 3.980469 -19.1875 3.410156 -19.1875 C 2.867188 -19.1875 2.292969 -18.855469 2.292969 -18.128906 L 2.292969 -1.117188 C 2.292969 -0.390625 2.625 0 3.4375 0 Z M 3.4375 0 "/></g></g></g><g fill="#737373" fill-opacity="1"><g transform="translate(184.033603, 364.955229)"><g><path d="M 10.890625 0.300781 C 16.019531 0.300781 20.542969 -3.648438 20.542969 -9.925781 C 20.542969 -16.710938 14.691406 -19.488281 10.648438 -19.488281 C 6.667969 -19.488281 1.117188 -16.683594 1.117188 -9.925781 C 1.117188 -3.53125 5.460938 0.300781 10.890625 0.300781 Z M 3.378906 -9.835938 C 3.378906 -15.507812 7.632812 -17.46875 10.710938 -17.46875 C 13.816406 -17.46875 18.3125 -15.355469 18.3125 -9.835938 C 18.3125 -4.765625 14.964844 -1.75 10.890625 -1.75 C 6.636719 -1.75 3.378906 -4.886719 3.378906 -9.835938 Z M 3.378906 -9.835938 "/></g></g></g><g fill="#737373" fill-opacity="1"><g transform="translate(221.338552, 364.955229)"><g><path d="M 9.53125 -3.410156 L 2.925781 -18.523438 C 2.746094 -18.976562 2.351562 -19.1875 1.929688 -19.1875 C 1.175781 -19.1875 0.390625 -18.554688 0.695312 -17.679688 L 8.386719 -0.363281 C 8.597656 0.0898438 8.988281 0.300781 9.382812 0.300781 C 9.835938 0.300781 10.316406 0.0585938 10.5 -0.332031 L 17.136719 -13.96875 L 23.742188 -0.363281 C 23.953125 0.0898438 24.34375 0.300781 24.738281 0.300781 C 25.160156 0.300781 25.582031 0.0585938 25.792969 -0.390625 L 33.457031 -17.617188 C 33.726562 -18.613281 33.035156 -19.1875 32.308594 -19.1875 C 31.886719 -19.1875 31.433594 -18.945312 31.253906 -18.460938 L 24.765625 -3.4375 L 18.191406 -16.863281 C 17.949219 -17.285156 17.527344 -17.496094 17.074219 -17.496094 C 16.652344 -17.496094 16.261719 -17.285156 16.078125 -16.832031 Z M 9.53125 -3.410156 "/></g></g></g><g clip-path="url(#9a6c88c6ab)"><path fill="#004aad" d="M 108.421875 115.929688 L 360.859375 1.539062 L 120.789062 212.410156 L 108.421875 115.929688 " fill-opacity="1" fill-rule="nonzero"/></g><g clip-path="url(#99731c9643)"><path fill="#38b6ff" d="M 165.78125 172.890625 L 177.375 183.523438 L 191.921875 170.3125 C 192.480469 169.800781 193.09375 169.339844 193.769531 168.988281 C 197.699219 166.929688 202.226562 167.925781 204.9375 170.910156 C 206.582031 172.726562 207.421875 175.078125 207.304688 177.535156 C 207.183594 179.992188 206.121094 182.25 204.308594 183.898438 L 178.878906 207.054688 C 176.300781 209.402344 176.203125 213.425781 178.664062 215.890625 L 178.667969 215.898438 C 180.976562 218.210938 184.691406 218.300781 187.109375 216.101562 L 224.355469 182.199219 C 226.050781 180.664062 228.25 179.816406 230.542969 179.820312 C 233.132812 179.824219 235.609375 180.917969 237.339844 182.828125 C 238.980469 184.640625 239.828125 186.992188 239.707031 189.449219 C 239.589844 191.910156 238.523438 194.167969 236.714844 195.8125 L 220.789062 210.328125 C 218.210938 212.675781 218.117188 216.699219 220.578125 219.164062 L 221.523438 220.113281 C 223.828125 222.429688 227.550781 222.515625 229.96875 220.3125 L 236.179688 214.648438 C 237.871094 213.109375 240.070312 212.265625 242.363281 212.265625 C 244.953125 212.273438 247.429688 213.367188 249.160156 215.273438 C 250.804688 217.085938 251.644531 219.4375 251.527344 221.898438 C 251.410156 224.355469 250.34375 226.613281 248.535156 228.257812 L 237.292969 238.472656 L 258.632812 258.042969 L 360.859375 1.539062 L 165.78125 172.890625 " fill-opacity="1" fill-rule="nonzero"/></g><path fill="#38b6ff" d="M 164.597656 220.058594 L 155.820312 228.050781 C 153.445312 230.214844 152.949219 233.902344 154.921875 236.441406 C 157.171875 239.332031 161.289062 239.601562 163.886719 237.238281 L 172.824219 229.105469 C 175.402344 226.757812 175.5 222.730469 173.039062 220.265625 C 170.730469 217.949219 167.011719 217.859375 164.597656 220.058594 " fill-opacity="1" fill-rule="nonzero"/><path fill="#38b6ff" d="M 206.511719 223.339844 L 196.703125 232.28125 C 194.046875 234.703125 194.042969 238.878906 196.691406 241.304688 L 197.695312 242.230469 C 200.027344 244.367188 203.605469 244.371094 205.941406 242.238281 L 215.699219 233.332031 C 218.273438 230.984375 218.367188 226.964844 215.910156 224.496094 L 214.957031 223.542969 C 212.652344 221.226562 208.925781 221.136719 206.511719 223.339844 " fill-opacity="1" fill-rule="nonzero"/><path fill="#38b6ff" d="M 23.429688 114.320312 L 41.148438 107.214844 C 44.90625 105.707031 45.902344 100.847656 43.039062 97.984375 L 43 97.945312 C 41.40625 96.351562 39.019531 95.859375 36.925781 96.691406 L 19.167969 103.757812 C 15.398438 105.253906 14.394531 110.121094 17.261719 112.992188 L 17.339844 113.070312 C 18.9375 114.667969 21.335938 115.15625 23.429688 114.320312 " fill-opacity="1" fill-rule="nonzero"/><g clip-path="url(#2ee3d3e6b5)"><path fill="#38b6ff" d="M 27.28125 68.230469 L 40.261719 75.863281 L 63.519531 66.324219 C 64.628906 65.867188 65.792969 65.640625 66.988281 65.640625 C 70.746094 65.640625 74.085938 67.875 75.507812 71.34375 C 77.429688 76.03125 75.179688 81.410156 70.492188 83.335938 L 54.066406 89.871094 C 50.296875 91.371094 49.292969 96.238281 52.160156 99.105469 C 53.757812 100.703125 56.152344 101.195312 58.25 100.355469 L 104.761719 81.703125 C 105.867188 81.25 107.035156 81.019531 108.230469 81.019531 C 111.984375 81.019531 115.332031 83.257812 116.75 86.722656 C 118.671875 91.414062 116.421875 96.792969 111.734375 98.71875 L 92.535156 106.589844 L 108.421875 115.929688 L 360.859375 1.539062 L 27.28125 68.230469 " fill-opacity="1" fill-rule="nonzero"/></g></svg>