<svg xmlns="http://www.w3.org/2000/svg" xmlns:xlink="http://www.w3.org/1999/xlink" width="700" zoomAndPan="magnify" viewBox="0 0 525 374.999991" height="500" preserveAspectRatio="xMidYMid meet" version="1.0"><defs><clipPath id="9d67c6fd05"><path d="M 146 0 L 516.121094 0 L 516.121094 309 L 146 309 Z M 146 0 " clip-rule="nonzero"/></clipPath><clipPath id="49d2124cbd"><path d="M 230 0 L 516.121094 0 L 516.121094 375 L 230 375 Z M 230 0 " clip-rule="nonzero"/></clipPath><clipPath id="28989812a4"><path d="M 27 0 L 516.121094 0 L 516.121094 168 L 27 168 Z M 27 0 " clip-rule="nonzero"/></clipPath></defs><g clip-path="url(#9d67c6fd05)"><path fill="#004aad" d="M 146.71875 167.25 L 516.09375 0.015625 L 164.816406 308.304688 L 146.71875 167.25 " fill-opacity="1" fill-rule="nonzero"/></g><g clip-path="url(#49d2124cbd)"><path fill="#38b6ff" d="M 230.648438 250.527344 L 247.613281 266.074219 L 268.898438 246.761719 C 269.71875 246.011719 270.617188 245.339844 271.597656 244.824219 C 277.351562 241.8125 283.976562 243.273438 287.941406 247.632812 C 290.351562 250.285156 291.578125 253.722656 291.410156 257.316406 C 291.230469 260.910156 289.679688 264.214844 287.027344 266.621094 L 249.8125 300.476562 C 246.042969 303.90625 245.898438 309.789062 249.5 313.394531 L 249.503906 313.402344 C 252.882812 316.785156 258.320312 316.917969 261.855469 313.703125 L 316.355469 264.140625 C 318.835938 261.890625 322.050781 260.65625 325.410156 260.660156 C 329.199219 260.667969 332.820312 262.265625 335.355469 265.058594 C 337.757812 267.707031 338.996094 271.148438 338.816406 274.738281 C 338.644531 278.332031 337.089844 281.636719 334.4375 284.039062 L 311.136719 305.261719 C 307.367188 308.691406 307.230469 314.574219 310.828125 318.179688 L 312.210938 319.566406 C 315.585938 322.953125 321.035156 323.082031 324.570312 319.859375 L 333.660156 311.578125 C 336.136719 309.328125 339.347656 308.09375 342.707031 308.097656 C 346.492188 308.101562 350.117188 309.703125 352.652344 312.492188 C 355.058594 315.144531 356.289062 318.582031 356.117188 322.175781 C 355.941406 325.769531 354.386719 329.074219 351.734375 331.476562 L 335.285156 346.40625 L 366.511719 375.015625 L 516.09375 0.015625 L 230.648438 250.527344 " fill-opacity="1" fill-rule="nonzero"/></g><path fill="#38b6ff" d="M 228.917969 319.488281 L 216.074219 331.171875 C 212.59375 334.335938 211.871094 339.726562 214.757812 343.4375 C 218.050781 347.664062 224.078125 348.058594 227.875 344.605469 L 240.953125 332.710938 C 244.726562 329.28125 244.871094 323.394531 241.269531 319.789062 C 237.890625 316.402344 232.453125 316.273438 228.917969 319.488281 " fill-opacity="1" fill-rule="nonzero"/><path fill="#38b6ff" d="M 290.246094 324.285156 L 275.894531 337.355469 C 272.007812 340.894531 272.003906 347.003906 275.875 350.550781 L 277.347656 351.902344 C 280.757812 355.023438 285.992188 355.03125 289.414062 351.914062 L 303.691406 338.894531 C 307.457031 335.460938 307.597656 329.582031 304 325.976562 L 302.605469 324.582031 C 299.230469 321.195312 293.78125 321.0625 290.246094 324.285156 " fill-opacity="1" fill-rule="nonzero"/><path fill="#38b6ff" d="M 22.355469 164.898438 L 48.285156 154.511719 C 53.78125 152.304688 55.238281 145.199219 51.046875 141.015625 L 50.992188 140.960938 C 48.660156 138.628906 45.167969 137.910156 42.101562 139.125 L 16.121094 149.457031 C 10.605469 151.648438 9.136719 158.761719 13.332031 162.957031 L 13.445312 163.070312 C 15.785156 165.410156 19.289062 166.125 22.355469 164.898438 " fill-opacity="1" fill-rule="nonzero"/><g clip-path="url(#28989812a4)"><path fill="#38b6ff" d="M 27.992188 97.519531 L 46.984375 108.671875 L 81.015625 94.726562 C 82.636719 94.0625 84.34375 93.730469 86.09375 93.730469 C 91.585938 93.730469 96.480469 97 98.554688 102.066406 C 101.371094 108.921875 98.078125 116.789062 91.21875 119.601562 L 67.183594 129.15625 C 61.671875 131.347656 60.203125 138.464844 64.398438 142.65625 C 66.734375 144.992188 70.238281 145.710938 73.304688 144.484375 L 141.363281 117.214844 C 142.984375 116.550781 144.691406 116.214844 146.441406 116.214844 C 151.933594 116.214844 156.828125 119.488281 158.902344 124.554688 C 161.71875 131.410156 158.425781 139.277344 151.566406 142.089844 L 123.472656 153.597656 L 146.71875 167.25 L 516.09375 0.015625 L 27.992188 97.519531 " fill-opacity="1" fill-rule="nonzero"/></g></svg>